<?xml version="1.0" encoding="utf-8"?>
<!-- Generator: Adobe Illustrator 16.0.0, SVG Export Plug-In . SVG Version: 6.00 Build 0)  -->
<!DOCTYPE svg PUBLIC "-//W3C//DTD SVG 1.1//EN" "http://www.w3.org/Graphics/SVG/1.1/DTD/svg11.dtd">
<svg version="1.1" id="Lager_1" xmlns="http://www.w3.org/2000/svg" xmlns:xlink="http://www.w3.org/1999/xlink" x="0px" y="0px"
	 width="184.398px" height="38.107px" viewBox="0 0 184.398 38.107" enable-background="new 0 0 184.398 38.107"
	 xml:space="preserve">
<g>
	<g>
		<path fill="#005DAA" d="M23.652,38.107H13.476c-9.435,0-15.636-1.802-12.773-15.423L5.526,0h7.95L9.024,20.936
			C7.434,28.462,6.851,31.8,15.437,31.8h9.54L23.652,38.107z"/>
		<path fill="#005DAA" d="M62.395,6.625H49.25c-5.671,0-9.274,2.969-10.918,8.904h22.154l-1.378,6.625H36.955
			c-1.483,6.891,0.901,9.328,6.996,9.328h13.146l-1.379,6.625H42.254c-12.189,0-16.377-6.784-13.938-18.338
			C30.807,8.162,36.637,0,50.522,0h13.25L62.395,6.625z"/>
		<path fill="#005DAA" d="M61.228,38.107L69.285,0h17.384c12.507,0,16.589,6.731,13.833,19.822
			c-1.803,8.374-6.571,18.285-21.677,18.285H61.228z M75.91,6.625l-5.301,24.857h9.274c6.36,0,9.646-1.431,11.979-12.402
			c1.854-8.745,1.061-12.455-6.678-12.455H75.91z"/>
		<path fill="#939598" d="M104.635,15.741l1.22-5.564h5.141L113.115,0h7.365l-2.119,10.177h7.896l-1.219,5.564h-7.896l-2.386,11.289
			c-1.008,4.664,0.371,5.513,5.988,5.513h0.742l-1.166,5.564h-6.73c-5.565,0-7.844-3.286-6.731-8.691l2.916-13.675L104.635,15.741
			L104.635,15.741z"/>
		<path fill="#939598" d="M149.049,38.107h-10.76c-11.713,0-12.455-7.686-11.131-13.992c1.537-7.102,6.309-13.938,17.066-13.938
			h10.76l-1.219,5.776h-9.752c-4.349,0-6.785,0.637-8.005,5.301h16.644l-1.271,5.882h-16.643c-0.637,4.188,0.211,5.195,5.725,5.195
			h9.806L149.049,38.107z"/>
		<path fill="#939598" d="M179.734,32.119l-1.271,5.988h-9.912c-9.909,0-13.567-5.406-11.766-13.886
			c1.219-5.725,4.771-14.045,17.703-14.045h9.91l-1.271,6.095h-7.737c-5.035,0-9.275,0.689-10.813,7.95
			c-0.848,3.815-0.795,7.896,7.42,7.896h7.738V32.119z"/>
	</g>
	<g>
		<path d="M105.373,49.367h-1.125l1.162-5.469h1.125L105.373,49.367z"/>
		<path d="M108.643,43.898l1.412,3.758l0.799-3.758h1.125l-1.162,5.468h-1.109l-1.401-3.811l-0.812,3.811h-1.125l1.162-5.468
			H108.643z"/>
		<path d="M116.922,43.898l-0.198,0.938h-1.599l-0.963,4.53h-1.125l0.963-4.53h-1.658l0.199-0.938H116.922z"/>
		<path d="M121.572,43.898l-0.199,0.938h-2.836l-0.264,1.246h2.617l-0.199,0.938h-2.617l-0.301,1.41h2.963l-0.199,0.938h-4.088
			l1.162-5.468L121.572,43.898L121.572,43.898z"/>
		<path d="M122.621,43.898h3.039c0.541,0.021,1.043,0.278,1.074,0.87c0.022,0.239,0.053,0.63-0.183,1.103
			c-0.235,0.474-0.512,0.646-0.926,0.862c0.16,0.128,0.492,0.263,0.445,0.758c-0.018,0.226-0.154,0.945-0.207,1.224
			c-0.064,0.307,0.012,0.375,0.115,0.449l-0.043,0.202h-1.207c-0.058-0.165-0.066-0.329-0.043-0.51
			c0.043-0.271,0.135-0.705,0.233-1.103c0.064-0.368-0.168-0.549-0.559-0.549h-1.32l-0.459,2.16h-1.125L122.621,43.898z
			 M123.242,46.269h1.539c0.262,0,0.793-0.277,0.84-0.816c0.084-0.391-0.049-0.615-0.551-0.615h-1.523L123.242,46.269z"/>
		<path d="M129.057,43.898l1.414,3.758l0.799-3.758h1.125l-1.162,5.468h-1.109l-1.403-3.811l-0.81,3.811h-1.125l1.162-5.468H129.057
			z"/>
		<path d="M136.963,49.367h-1.147l-0.144-1.097h-2.024l-0.615,1.097h-1.146l3.065-5.469h1.299L136.963,49.367z M134.199,47.333
			h1.402l-0.275-2.123L134.199,47.333z"/>
		<path d="M142.078,43.898l-0.199,0.938h-1.598l-0.963,4.53h-1.125l0.963-4.53h-1.658l0.199-0.938H142.078z"/>
		<path d="M142.611,49.367h-1.125l1.162-5.469h1.125L142.611,49.367z"/>
		<path d="M147.961,48.856c-0.557,0.474-1.27,0.683-1.967,0.683s-1.32-0.209-1.678-0.683c-0.396-0.533-0.521-1.356-0.346-2.183
			c0.175-0.826,0.649-1.65,1.272-2.184c0.56-0.473,1.271-0.683,1.969-0.683c0.698,0,1.32,0.21,1.677,0.683
			c0.397,0.532,0.521,1.357,0.348,2.184C149.061,47.5,148.586,48.323,147.961,48.856z M147.287,48.188
			c0.43-0.33,0.734-0.922,0.869-1.515c0.117-0.594,0.064-1.186-0.227-1.516c-0.229-0.264-0.566-0.367-0.927-0.367
			s-0.741,0.104-1.084,0.367c-0.43,0.33-0.735,0.922-0.869,1.516c-0.118,0.593-0.063,1.185,0.226,1.515
			c0.229,0.263,0.567,0.367,0.928,0.367S146.945,48.451,147.287,48.188z"/>
		<path d="M151.715,43.898l1.414,3.758l0.8-3.758h1.125l-1.162,5.468h-1.109l-1.402-3.811l-0.811,3.811h-1.125l1.162-5.468H151.715z
			"/>
		<path d="M159.621,49.367h-1.147l-0.142-1.097h-2.024l-0.615,1.097h-1.148l3.068-5.469h1.297L159.621,49.367z M156.857,47.333
			h1.401l-0.274-2.123L156.857,47.333z"/>
		<path d="M162.65,43.898l-0.963,4.53h2.617l-0.199,0.938h-3.742l1.162-5.468H162.65z"/>
		<path d="M171.703,49.367h-1.146l-0.144-1.097h-2.024l-0.615,1.097h-1.148l3.068-5.469h1.297L171.703,49.367z M168.941,47.333
			h1.401l-0.276-2.123L168.941,47.333z"/>
		<path d="M173.623,43.898h2.258c1.867,0,1.716,1.208,1.668,1.434c-0.069,0.33-0.289,0.795-0.756,1.125
			c0.271,0.248,0.496,0.728,0.357,1.381c-0.062,0.283-0.238,0.733-0.814,1.153c-0.442,0.322-1.063,0.375-1.407,0.375h-2.468
			L173.623,43.898z M173.785,48.429h1.32c0.338,0,0.85-0.016,1.01-0.766c0.131-0.615-0.291-0.646-0.5-0.646h-1.531L173.785,48.429z
			 M174.285,46.082h1.273c0.479,0,0.799-0.188,0.891-0.623c0.1-0.473-0.176-0.623-0.564-0.623h-1.336L174.285,46.082z"/>
	</g>
</g>
<g id="Lager_2">
</g>
</svg>
